<svg width="308" height="149" viewBox="0 0 308 149" fill="none" xmlns="http://www.w3.org/2000/svg">
<g clip-path="url(#clip0_22_137)">
<path d="M35.4776 22.62C36.1157 21.866 36.4347 20.967 36.4347 19.923C36.4347 18.879 36.1157 17.951 35.4776 17.139C34.8977 16.269 34.0276 15.834 32.8676 15.834H25.5597V23.751H32.8676C34.0276 23.751 34.8977 23.374 35.4776 22.62ZM25.5597 38.28V46.806H33.6507C34.9847 46.806 35.9706 46.371 36.6087 45.501C37.3046 44.573 37.6526 43.558 37.6526 42.456V42.369C37.6526 41.267 37.2756 40.31 36.5216 39.498C35.8256 38.686 34.8686 38.28 33.6507 38.28H25.5597ZM35.9127 61.77H6.15865C5.52065 61.77 4.96965 61.538 4.50565 61.074C4.04165 60.61 3.80965 60.059 3.80965 59.421V3.219C3.80965 2.581 4.04165 2.03 4.50565 1.566C4.96965 1.102 5.52065 0.869999 6.15865 0.869999H35.0427C43.2787 0.869999 49.3397 2.378 53.2257 5.394C57.1697 8.352 59.1417 12.847 59.1417 18.879V19.14C59.1417 21.634 58.4167 23.867 56.9667 25.839C55.5166 27.753 53.9217 29.145 52.1817 30.015C54.5016 30.943 56.4447 32.596 58.0107 34.974C59.6347 37.294 60.4467 39.846 60.4467 42.63C60.4467 55.39 52.2687 61.77 35.9127 61.77Z" fill="#FFF5D9"/>
<path d="M66.9594 48.807C66.9594 40.977 73.3104 35.96 86.0124 33.756L95.2344 32.277C95.2344 30.537 95.0894 29.377 94.7994 28.797C94.5094 28.159 93.8134 27.84 92.7114 27.84C91.6674 27.84 90.6234 28.304 89.5794 29.232C88.5354 30.16 87.5494 30.624 86.6214 30.624H71.8314C70.5554 30.624 69.9174 30.015 69.9174 28.797C69.9174 27.521 70.3524 26.187 71.2224 24.795C72.1504 23.345 73.4554 21.924 75.1374 20.532C76.8774 19.14 79.2844 17.98 82.3584 17.052C85.4904 16.124 88.9704 15.66 92.7984 15.66C100.57 15.66 106.399 17.284 110.285 20.532C114.171 23.78 116.114 28.42 116.114 34.452V59.421C116.114 60.059 115.882 60.61 115.418 61.074C114.954 61.538 114.403 61.77 113.765 61.77H98.5404C97.9024 61.77 97.3514 61.538 96.8874 61.074C96.4234 60.61 96.1914 60.059 96.1914 59.421V56.985C93.4654 60.755 89.4924 62.64 84.2724 62.64C79.0524 62.64 74.8474 61.335 71.6574 58.725C68.5254 56.057 66.9594 52.751 66.9594 48.807ZM89.8404 49.764C93.6104 49.764 95.4954 47.502 95.4954 42.978L90.3624 44.109C87.8104 44.689 86.5344 45.762 86.5344 47.328C86.5344 48.024 86.8244 48.604 87.4044 49.068C87.9844 49.532 88.7964 49.764 89.8404 49.764Z" fill="#FFF5D9"/>
<path d="M142.261 61.77H126.688C126.05 61.77 125.499 61.538 125.035 61.074C124.571 60.61 124.339 60.059 124.339 59.421V2.349C124.339 1.711 124.571 1.16 125.035 0.696001C125.499 0.232 126.05 0 126.688 0H142.261C142.899 0 143.45 0.232 143.914 0.696001C144.378 1.16 144.61 1.711 144.61 2.349V59.421C144.61 60.059 144.378 60.61 143.914 61.074C143.45 61.538 142.899 61.77 142.261 61.77Z" fill="#FFF5D9"/>
<path d="M172.363 18.879V21.924C176.423 18.328 180.947 16.53 185.935 16.53H190.111C190.749 16.53 191.3 16.762 191.764 17.226C192.228 17.69 192.46 18.241 192.46 18.879V32.451C192.46 33.089 192.228 33.64 191.764 34.104C191.3 34.568 190.749 34.8 190.111 34.8H178.888C177.322 34.8 176.075 35.177 175.147 35.931C174.277 36.627 173.784 37.584 173.668 38.802V59.421C173.668 60.059 173.436 60.61 172.972 61.074C172.508 61.538 171.957 61.77 171.319 61.77H154.789C154.151 61.77 153.6 61.538 153.136 61.074C152.672 60.61 152.44 60.059 152.44 59.421V18.879C152.44 18.241 152.672 17.69 153.136 17.226C153.6 16.762 154.151 16.53 154.789 16.53H170.014C170.652 16.53 171.203 16.762 171.667 17.226C172.131 17.69 172.363 18.241 172.363 18.879Z" fill="#FFF5D9"/>
<path d="M198.139 42.108V36.192C198.139 29.58 200.488 24.505 205.186 20.967C209.884 17.429 215.945 15.66 223.369 15.66C230.793 15.66 236.854 17.429 241.552 20.967C246.25 24.505 248.599 29.58 248.599 36.192V42.108C248.599 48.778 246.337 53.882 241.813 57.42C237.289 60.9 231.141 62.64 223.369 62.64C215.597 62.64 209.449 60.9 204.925 57.42C200.401 53.882 198.139 48.778 198.139 42.108ZM227.284 42.804V35.496C227.284 33.292 226.994 31.755 226.414 30.885C225.834 30.015 224.819 29.58 223.369 29.58C221.919 29.58 220.904 30.015 220.324 30.885C219.744 31.755 219.454 33.292 219.454 35.496V42.804C219.454 45.124 219.744 46.69 220.324 47.502C220.904 48.314 221.919 48.72 223.369 48.72C224.819 48.72 225.834 48.285 226.414 47.415C226.994 46.545 227.284 45.008 227.284 42.804Z" fill="#FFF5D9"/>
<path d="M275.951 2.349V30.537L283.607 18.009C284.187 17.023 285.028 16.53 286.13 16.53H303.704C304.284 16.53 304.777 16.733 305.183 17.139C305.589 17.545 305.792 18.009 305.792 18.531C305.792 19.053 305.647 19.517 305.357 19.923L293.438 36.888L307.532 58.551C307.764 58.899 307.88 59.334 307.88 59.856C307.88 60.32 307.677 60.755 307.271 61.161C306.865 61.567 306.372 61.77 305.792 61.77H287.522C286.362 61.77 285.463 61.277 284.825 60.291L275.951 45.501V59.421C275.951 60.059 275.719 60.61 275.255 61.074C274.791 61.538 274.24 61.77 273.602 61.77H258.377C257.739 61.77 257.188 61.538 256.724 61.074C256.26 60.61 256.028 60.059 256.028 59.421V2.349C256.028 1.711 256.26 1.16 256.724 0.696001C257.188 0.232 257.739 0 258.377 0H273.602C274.24 0 274.791 0.232 275.255 0.696001C275.719 1.16 275.951 1.711 275.951 2.349Z" fill="#FFF5D9"/>
<path d="M1.479 106.37C1.479 100.454 3.915 95.64 8.787 91.928C13.717 88.216 20.155 86.36 28.101 86.36C36.105 86.36 42.63 88.303 47.676 92.189C52.78 96.075 55.332 100.135 55.332 104.369C55.332 104.891 55.129 105.355 54.723 105.761C54.375 106.109 53.969 106.283 53.505 106.283H36.105C34.771 106.283 33.553 105.79 32.451 104.804C31.349 103.818 29.87 103.325 28.014 103.325C25.23 103.325 23.838 104.137 23.838 105.761C23.838 106.631 24.505 107.356 25.839 107.936C27.231 108.516 29.783 109.038 33.495 109.502C42.137 110.604 48.285 112.634 51.939 115.592C55.651 118.492 57.507 122.929 57.507 128.903C57.507 134.819 54.781 139.662 49.329 143.432C43.935 147.144 36.859 149 28.101 149C19.343 149 12.47 147.202 7.482 143.606C2.494 140.01 0 135.631 0 130.469C0 129.947 0.174 129.512 0.522 129.164C0.928 128.758 1.392 128.555 1.914 128.555H18.444C19.662 128.555 20.996 129.135 22.446 130.295C23.954 131.455 26.013 132.035 28.623 132.035C32.973 132.035 35.148 131.223 35.148 129.599C35.148 128.555 34.365 127.772 32.799 127.25C31.233 126.67 28.275 126.09 23.925 125.51C8.961 123.538 1.479 117.158 1.479 106.37Z" fill="#FFF5D9"/>
<path d="M90.5412 118.115V127.685C90.5412 130.585 91.7882 132.035 94.2822 132.035H102.199C102.837 132.035 103.388 132.267 103.852 132.731C104.316 133.195 104.548 133.746 104.548 134.384V145.781C104.548 146.419 104.316 146.97 103.852 147.434C103.388 147.898 102.837 148.13 102.199 148.13H92.3682C77.8682 148.13 70.6182 141.895 70.6182 129.425V118.115H63.7452C63.1072 118.115 62.5562 117.883 62.0922 117.419C61.6282 116.955 61.3962 116.404 61.3962 115.766V105.239C61.3962 104.601 61.6282 104.05 62.0922 103.586C62.5562 103.122 63.1072 102.89 63.7452 102.89H70.6182V88.709C70.6182 88.071 70.8502 87.52 71.3142 87.056C71.7782 86.592 72.3292 86.36 72.9672 86.36H88.1922C88.8302 86.36 89.3812 86.592 89.8452 87.056C90.3092 87.52 90.5412 88.071 90.5412 88.709V102.89H101.503C102.141 102.89 102.692 103.122 103.156 103.586C103.62 104.05 103.852 104.601 103.852 105.239V115.766C103.852 116.404 103.62 116.955 103.156 117.419C102.692 117.883 102.141 118.115 101.503 118.115H90.5412Z" fill="#FFF5D9"/>
<path d="M110.225 129.251V105.239C110.225 104.601 110.457 104.05 110.921 103.586C111.385 103.122 111.936 102.89 112.574 102.89H129.191C129.829 102.89 130.38 103.122 130.844 103.586C131.308 104.05 131.54 104.601 131.54 105.239V128.642C131.54 131.832 132.99 133.427 135.89 133.427C138.79 133.427 140.24 131.832 140.24 128.642V105.239C140.24 104.601 140.472 104.05 140.936 103.586C141.4 103.122 141.951 102.89 142.589 102.89H159.119C159.757 102.89 160.308 103.122 160.772 103.586C161.236 104.05 161.468 104.601 161.468 105.239V145.781C161.468 146.419 161.236 146.97 160.772 147.434C160.308 147.898 159.757 148.13 159.119 148.13H143.894C143.256 148.13 142.705 147.898 142.241 147.434C141.777 146.97 141.545 146.419 141.545 145.781V142.91C138.819 146.97 134.005 149 127.103 149C122.347 149 118.345 147.347 115.097 144.041C111.849 140.677 110.225 135.747 110.225 129.251Z" fill="#FFF5D9"/>
<path d="M168.828 128.903V122.03C168.828 115.534 170.568 110.575 174.048 107.153C177.528 103.731 181.762 102.02 186.75 102.02C191.796 102.02 195.827 103.383 198.843 106.109V88.709C198.843 88.071 199.075 87.52 199.539 87.056C200.003 86.592 200.554 86.36 201.192 86.36H217.287C217.925 86.36 218.476 86.592 218.94 87.056C219.404 87.52 219.636 88.071 219.636 88.709V145.781C219.636 146.419 219.404 146.97 218.94 147.434C218.476 147.898 217.925 148.13 217.287 148.13H202.497C201.859 148.13 201.308 147.898 200.844 147.434C200.38 146.97 200.148 146.419 200.148 145.781V143.171C197.132 147.057 192.869 149 187.359 149C181.849 149 177.383 147.376 173.961 144.128C170.539 140.822 168.828 135.747 168.828 128.903ZM198.843 128.381V121.943C198.669 119.043 197.219 117.593 194.493 117.593C191.593 117.593 190.143 119.275 190.143 122.639V128.381C190.143 131.745 191.593 133.427 194.493 133.427C197.393 133.427 198.843 131.745 198.843 128.381Z" fill="#FFF5D9"/>
<path d="M246.253 148.13H230.68C230.042 148.13 229.491 147.898 229.027 147.434C228.563 146.97 228.331 146.419 228.331 145.781V105.239C228.331 104.601 228.563 104.05 229.027 103.586C229.491 103.122 230.042 102.89 230.68 102.89H246.253C246.891 102.89 247.442 103.122 247.906 103.586C248.37 104.05 248.602 104.601 248.602 105.239V145.781C248.602 146.419 248.37 146.97 247.906 147.434C247.442 147.898 246.891 148.13 246.253 148.13ZM248.167 86.099V96.626C248.167 97.264 247.935 97.815 247.471 98.279C247.007 98.743 246.456 98.975 245.818 98.975H231.115C230.477 98.975 229.926 98.743 229.462 98.279C228.998 97.815 228.766 97.264 228.766 96.626V86.099C228.766 85.461 228.998 84.91 229.462 84.446C229.926 83.982 230.477 83.75 231.115 83.75H245.818C246.456 83.75 247.007 83.982 247.471 84.446C247.935 84.91 248.167 85.461 248.167 86.099Z" fill="#FFF5D9"/>
<path d="M255.997 128.468V122.552C255.997 115.94 258.346 110.865 263.044 107.327C267.742 103.789 273.804 102.02 281.228 102.02C288.652 102.02 294.712 103.789 299.41 107.327C304.108 110.865 306.457 115.94 306.457 122.552V128.468C306.457 135.138 304.196 140.242 299.672 143.78C295.148 147.26 289 149 281.228 149C273.456 149 267.308 147.26 262.784 143.78C258.26 140.242 255.997 135.138 255.997 128.468ZM285.142 129.164V121.856C285.142 119.652 284.852 118.115 284.272 117.245C283.692 116.375 282.678 115.94 281.228 115.94C279.778 115.94 278.762 116.375 278.182 117.245C277.602 118.115 277.312 119.652 277.312 121.856V129.164C277.312 131.484 277.602 133.05 278.182 133.862C278.762 134.674 279.778 135.08 281.228 135.08C282.678 135.08 283.692 134.645 284.272 133.775C284.852 132.905 285.142 131.368 285.142 129.164Z" fill="#FFF5D9"/>
</g>
<defs>
<clipPath id="clip0_22_137">
<rect width="308" height="149" fill="white"/>
</clipPath>
</defs>
</svg>
